<svg width="225" height="76" viewBox="0 0 225 76" fill="none" xmlns="http://www.w3.org/2000/svg">
<path d="M48.2275 55.4961C48.125 54.1289 45.9717 53.3428 41.7676 53.1377C37.5635 52.9668 31.1377 53.3428 22.4561 54.334H22.4219C22.1484 53.7529 22.2852 52.3516 22.8662 50.1299C23.4131 47.9424 24.0967 45.5156 24.9512 42.8154C26.0791 39.1924 27.1387 35.501 28.0957 31.7412C29.0186 27.9814 29.5312 24.5977 29.5996 21.5898C29.6338 18.6162 28.8818 16.4287 27.3438 15.0957C25.3955 13.5576 22.2168 13.7285 17.8418 15.6084C12.7832 17.9326 8.61328 21.0088 5.33203 24.8369C2.05078 28.665 0.307617 32.1172 0.0683594 35.1592C0.0341797 36.5264 0.375977 37.5859 1.16211 38.3037C1.91406 39.0557 3.00781 39.4316 4.44336 39.4316C4.61426 39.4316 4.78516 39.3633 4.95605 39.2266C5.09277 39.124 5.19531 38.9873 5.22949 38.8164C5.26367 38.6455 5.26367 38.4746 5.16113 38.3721C5.05859 38.2695 4.95605 38.2012 4.78516 38.2012C2.42676 38.2012 1.29883 37.1074 1.33301 34.8857C1.40137 33.2793 2.11914 31.3311 3.52051 29.041C4.8877 26.7852 6.80176 24.5293 9.29688 22.3076C11.7578 20.0859 14.6973 18.2061 18.0811 16.7021C22.0117 15.0273 24.7803 14.8223 26.4209 16.0869C27.8223 17.3174 28.4375 19.4023 28.335 22.3418C28.1982 25.3154 27.6514 28.5967 26.7285 32.2539C25.8057 35.9111 24.8145 39.4316 23.7549 42.7812C21.8066 48.8652 20.918 52.7617 21.0889 54.5049C19.8584 54.6416 18.5938 54.7783 17.2949 54.9492C17.124 54.9834 16.9531 55.0518 16.8164 55.1885C16.6797 55.3252 16.6113 55.4619 16.5771 55.6328C16.543 55.8037 16.6113 55.9062 16.7139 56.0088C16.8164 56.1113 16.9531 56.1797 17.124 56.1455C23.0371 55.3594 28.9502 54.8125 34.7949 54.4365C37.4951 54.2998 39.6484 54.2656 41.2549 54.334C42.8613 54.4365 44.0918 54.5732 44.9121 54.7441C45.7324 54.915 46.2793 55.1201 46.5869 55.3252C46.8604 55.5645 46.9971 55.7354 46.9971 55.9062C47.0654 56.1797 47.2021 56.3164 47.4414 56.3164C47.5439 56.3164 47.6123 56.3164 47.6807 56.2822C47.8516 56.2139 48.0225 56.1113 48.125 55.9404C48.2275 55.8037 48.2617 55.667 48.2275 55.4961ZM35.4102 42.918C35.2051 42.918 35 42.918 34.8291 42.8838C33.667 42.8154 32.8467 42.3711 32.3682 41.5508C31.958 40.7646 31.8213 39.876 31.9922 38.9531C32.1289 38.0303 32.2998 37.3467 32.5391 36.834C32.6074 36.6631 32.71 36.5264 32.8809 36.4238C33.0176 36.3213 33.1543 36.2871 33.3252 36.3213C33.4961 36.3555 33.6328 36.4238 33.7012 36.5264C33.7354 36.6631 33.7354 36.7998 33.7012 36.9707C33.1201 38.6113 33.0518 39.876 33.4961 40.7646C33.8037 41.3457 34.3848 41.6533 35.2393 41.6875C37.7002 41.9609 40.9131 40.6279 44.9121 37.6543C45.083 37.5518 45.2197 37.4834 45.3906 37.4834C45.5615 37.4834 45.6641 37.5518 45.7666 37.6885C45.835 37.8252 45.835 37.9619 45.8008 38.1328C45.7666 38.3037 45.6641 38.4404 45.4932 38.543C41.5967 41.4482 38.2471 42.918 35.4102 42.918ZM33.8721 34.9199C33.7695 34.9541 33.6328 34.9541 33.5303 34.9199C33.4277 34.8516 33.3594 34.749 33.3252 34.5781C33.291 34.4414 33.291 34.3047 33.3594 34.1338C33.4619 33.8945 33.5986 33.6553 33.7012 33.3818C33.8379 33.0742 33.9746 32.7666 34.1455 32.3906C34.248 32.2197 34.3506 32.1172 34.4873 32.0488C34.624 31.9805 34.7607 31.9805 34.8975 32.0146C35 32.083 35.1025 32.1855 35.1367 32.3223C35.1709 32.459 35.1367 32.6299 35.0684 32.8008C34.8975 33.1426 34.7607 33.4502 34.624 33.7236C34.5215 34.0312 34.3848 34.3047 34.248 34.5439C34.1455 34.7148 34.043 34.8516 33.8721 34.9199ZM51.8848 36.3213C52.2266 36.3213 52.3975 36.458 52.3975 36.7656L52.3291 37.1758C52.3291 38.0303 53.3887 38.5771 55.4736 38.7822L56.7041 38.8164C58.8916 38.8164 61.3184 38.4404 63.9844 37.6543L64.1553 37.6201C64.4287 37.6201 64.5996 37.7568 64.6338 38.0303C64.6338 38.4062 64.4287 38.6455 64.0527 38.8164C61.2158 39.6367 58.6523 40.0469 56.3623 40.0469C54.4482 40.0469 53.0469 39.7734 52.1924 39.2607C51.9531 39.124 51.748 38.9873 51.5771 38.8164C51.167 39.6367 50.6201 40.3887 49.9707 41.0723C48.8428 42.3369 47.7832 42.9521 46.8604 42.9521C46.1426 42.9521 45.6299 42.6445 45.2881 42.0635C44.9121 41.4824 44.7412 40.9014 44.707 40.3545C44.6729 39.8418 44.6729 39.5 44.6729 39.3975C44.6729 38.6113 44.7754 37.791 45.0146 36.9365C45.1172 36.5264 45.3906 36.3213 45.7666 36.3213C46.0742 36.3213 46.2451 36.458 46.2451 36.7314L46.2109 36.9365C46.04 37.7227 45.9375 38.4062 45.9375 39.0557C45.9375 39.5 45.9717 39.9443 46.0742 40.3203C46.3135 41.2773 46.6553 41.7559 47.168 41.7559C47.6807 41.7559 48.3643 41.2773 49.2529 40.2861C50.0732 39.3633 50.6885 38.2354 51.1328 36.9023C51.2695 36.5264 51.5088 36.3213 51.8848 36.3213ZM66.9922 42.918C66.7871 42.918 66.582 42.918 66.4111 42.8838C65.249 42.8154 64.4287 42.3711 63.9502 41.5508C63.54 40.7646 63.4033 39.876 63.5742 38.9531C63.7109 38.0303 63.8818 37.3467 64.1211 36.834C64.1895 36.6631 64.292 36.5264 64.4629 36.4238C64.5996 36.3213 64.7363 36.2871 64.9072 36.3213C65.0781 36.3555 65.2148 36.4238 65.2832 36.5264C65.3174 36.6631 65.3174 36.7998 65.2832 36.9707C64.7021 38.6113 64.6338 39.876 65.0781 40.7646C65.3857 41.3457 65.9668 41.6533 66.8213 41.6875C69.2822 41.9609 72.4951 40.6279 76.4941 37.6543C76.665 37.5518 76.8018 37.4834 76.9727 37.4834C77.1436 37.4834 77.2461 37.5518 77.3486 37.6885C77.417 37.8252 77.417 37.9619 77.3828 38.1328C77.3486 38.3037 77.2461 38.4404 77.0752 38.543C73.1787 41.4482 69.8291 42.918 66.9922 42.918ZM66.1035 34.6465C66.0352 34.8857 65.9326 35.0566 65.7617 35.1934C65.5908 35.3643 65.3857 35.4326 65.1807 35.4326C65.0098 35.4326 64.873 35.3643 64.7705 35.1934C64.668 35.0566 64.668 34.8857 64.7021 34.6465C64.7705 34.4414 64.9072 34.2705 65.0781 34.0996C65.249 33.9629 65.4199 33.8945 65.625 33.8945C65.7959 33.8945 65.9326 33.9629 66.0352 34.0996C66.1377 34.2705 66.1377 34.4414 66.1035 34.6465ZM78.7158 37.5176C78.5107 37.5176 78.3057 37.5859 78.1006 37.6885C77.6221 37.9961 77.2461 38.4404 76.9385 39.0898C76.6309 39.7393 76.46 40.3545 76.46 40.9355C76.46 41.1064 76.4941 41.3115 76.5967 41.5166C76.665 41.7217 76.8018 41.8242 77.041 41.8242C77.417 41.8242 77.9297 41.4482 78.5107 40.6963C79.0918 39.9785 79.6729 39.1582 80.2197 38.3037C80.0146 38.1328 79.7754 37.9277 79.5361 37.7568C79.2969 37.5859 79.0234 37.5176 78.7158 37.5176ZM82.4072 36.6289C82.4414 36.7656 82.373 37.0391 82.2363 37.4834C81.8604 38.6113 81.7236 39.5684 81.8262 40.2861C81.9287 41.0381 82.5098 41.5166 83.6035 41.6875C85.9619 42.0635 89.1748 40.8672 93.3105 38.0645C93.4814 37.9619 93.6523 37.9277 93.8232 37.9277C93.96 37.9619 94.0625 38.0303 94.165 38.167C94.2334 38.3037 94.2334 38.4404 94.1992 38.6113C94.1309 38.7822 94.0283 38.9189 93.8574 39.0215C89.9609 41.6533 86.7139 42.9863 84.1504 42.9863C83.7744 42.9863 83.4326 42.9521 83.0908 42.8838C81.9629 42.6787 81.2451 42.2686 80.9375 41.6533C80.6299 41.0723 80.4932 40.457 80.5615 39.7734C80.3906 39.9785 80.2539 40.1836 80.1172 40.3887C79.5703 41.1748 79.0234 41.79 78.4424 42.3027C77.8613 42.8154 77.3145 43.0547 76.7334 43.0547C75.8105 43.0547 75.2979 42.4395 75.2295 41.2432C75.1953 40.457 75.4346 39.6025 75.8789 38.6797C76.3232 37.791 76.9727 37.1074 77.7588 36.6631C78.1348 36.4238 78.6133 36.3213 79.1943 36.3213C79.7412 36.3213 80.3223 36.5947 80.9717 37.1416C81.0742 36.9707 81.1768 36.834 81.2793 36.6973C81.3818 36.5264 81.5186 36.4238 81.6895 36.3555C81.8604 36.2871 81.9971 36.2871 82.168 36.3555C82.3047 36.3896 82.373 36.4922 82.4072 36.6289ZM140.479 39.4316H136.787C138.12 35.877 139.248 32.459 140.239 29.1436C141.196 25.8281 141.709 22.9229 141.812 20.3936C141.88 17.8643 141.265 15.9844 139.966 14.7881C137.915 12.9766 134.155 13.25 128.652 15.6084C123.594 17.9326 119.424 21.0088 116.143 24.8369C112.827 28.665 111.084 32.1172 110.879 35.1592C110.845 36.5264 111.187 37.5859 111.973 38.3037C112.725 39.0557 113.818 39.4316 115.254 39.4316C115.425 39.4316 115.562 39.3633 115.732 39.2266C115.869 39.124 115.972 38.9873 116.04 38.8164C116.074 38.6455 116.04 38.4746 115.972 38.3721C115.869 38.2695 115.767 38.2012 115.596 38.2012C113.237 38.2012 112.075 37.1074 112.109 34.8857C112.212 33.2793 112.93 31.3311 114.297 29.041C115.664 26.7852 117.578 24.5293 120.073 22.3076C122.568 20.0859 125.508 18.2061 128.892 16.7021C133.882 14.5488 137.266 14.2412 139.009 15.7793C140.137 16.873 140.649 18.6504 140.513 21.0771C140.376 23.5381 139.829 26.375 138.872 29.5879C137.915 32.8008 136.821 36.082 135.557 39.4316H125.679C125.508 39.4316 125.371 39.5 125.234 39.6025C125.063 39.7051 124.961 39.8418 124.927 40.0127C124.893 40.1836 124.893 40.3545 124.995 40.457C125.098 40.5596 125.2 40.6279 125.371 40.6279H135.112C134.668 41.7559 134.258 42.8838 133.848 43.9434C132.036 48.5918 130.669 52.5908 129.678 55.9746C129.644 56.1455 129.644 56.2822 129.746 56.3848C129.814 56.5215 129.951 56.5898 130.122 56.5898C130.293 56.5898 130.43 56.5215 130.601 56.3848C130.737 56.2822 130.84 56.1455 130.874 55.9746C131.831 52.6592 133.198 48.6943 135.01 44.0801C135.454 42.9521 135.864 41.79 136.309 40.6279H140.171C140.342 40.6279 140.479 40.5596 140.649 40.457C140.786 40.3545 140.889 40.1836 140.923 40.0127C140.957 39.8418 140.957 39.7051 140.854 39.6025C140.752 39.5 140.649 39.4316 140.479 39.4316ZM148.135 42.918C147.93 42.918 147.725 42.918 147.554 42.8838C146.392 42.8154 145.571 42.3711 145.093 41.5508C144.683 40.7646 144.546 39.876 144.717 38.9531C144.854 38.0303 145.024 37.3467 145.264 36.834C145.332 36.6631 145.435 36.5264 145.605 36.4238C145.742 36.3213 145.879 36.2871 146.05 36.3213C146.221 36.3555 146.357 36.4238 146.426 36.5264C146.46 36.6631 146.46 36.7998 146.426 36.9707C145.845 38.6113 145.776 39.876 146.221 40.7646C146.528 41.3457 147.109 41.6533 147.964 41.6875C150.425 41.9609 153.638 40.6279 157.637 37.6543C157.808 37.5518 157.944 37.4834 158.115 37.4834C158.286 37.4834 158.389 37.5518 158.491 37.6885C158.56 37.8252 158.56 37.9619 158.525 38.1328C158.491 38.3037 158.389 38.4404 158.218 38.543C154.321 41.4482 150.972 42.918 148.135 42.918ZM147.246 34.6465C147.178 34.8857 147.075 35.0566 146.904 35.1934C146.733 35.3643 146.528 35.4326 146.323 35.4326C146.152 35.4326 146.016 35.3643 145.913 35.1934C145.811 35.0566 145.811 34.8857 145.845 34.6465C145.913 34.4414 146.05 34.2705 146.221 34.0996C146.392 33.9629 146.562 33.8945 146.768 33.8945C146.938 33.8945 147.075 33.9629 147.178 34.0996C147.28 34.2705 147.28 34.4414 147.246 34.6465ZM169.839 35.877C169.531 35.877 169.189 35.9111 168.779 36.0137C167.412 36.3896 166.147 37.0732 164.951 38.0645C163.755 39.0557 162.627 40.2861 161.567 41.6875C162.49 41.5166 163.584 41.2432 164.78 40.833C165.977 40.4229 167.104 39.9443 168.198 39.3975C170.317 38.2354 171.309 37.2783 171.172 36.5605C171.069 36.1162 170.625 35.877 169.839 35.877ZM153.672 57.2734C153.501 57.2734 153.398 57.2051 153.296 57.1025C153.193 57 153.193 56.8291 153.228 56.6582C153.398 55.9404 153.706 54.5732 154.15 52.625C154.663 50.1982 155.278 47.5322 155.996 44.5928C156.68 41.6533 157.363 39.0898 158.047 36.8682C158.115 36.6973 158.218 36.5605 158.389 36.458C158.525 36.3555 158.662 36.2871 158.833 36.3213C159.004 36.3213 159.106 36.3896 159.209 36.4922C159.277 36.6289 159.277 36.7656 159.243 36.9365C158.184 40.3545 157.192 44.251 156.235 48.6602C157.637 45.6182 159.38 42.7471 161.499 40.0469C163.584 37.3809 166.011 35.6377 168.779 34.8516C170.864 34.4072 172.095 34.8174 172.402 36.1162C172.505 36.6631 172.266 37.3125 171.685 38.0986C171.104 38.8848 170.078 39.6709 168.54 40.457C166.797 41.3115 164.917 41.9951 162.9 42.542C164.199 42.918 165.908 43.0889 168.027 43.0889C170.146 43.123 172.539 42.7471 175.205 41.9609C177.871 41.209 180.674 39.8076 183.579 37.791C183.75 37.6885 183.887 37.6543 184.058 37.6543C184.229 37.6885 184.331 37.7568 184.434 37.8594C184.502 37.9961 184.502 38.1328 184.468 38.3037C184.399 38.4746 184.297 38.6113 184.126 38.7139C180.503 41.209 177.085 42.8154 173.872 43.5332C170.659 44.2852 167.891 44.5244 165.566 44.251C163.208 44.0117 161.533 43.6357 160.542 43.1572C158.867 45.7891 157.534 48.3867 156.475 50.9502C155.415 53.5137 154.731 55.3936 154.424 56.6582C154.39 56.8291 154.287 57 154.15 57.1025C153.979 57.2051 153.843 57.2734 153.672 57.2734ZM185.356 42.0635C184.604 41.79 184.058 41.4141 183.682 40.9355C182.759 44.4902 182.075 47.1221 181.597 48.8652C181.562 49.0361 181.46 49.207 181.323 49.3096C181.152 49.4121 181.016 49.4805 180.845 49.4805C180.674 49.4805 180.571 49.4121 180.469 49.3096C180.366 49.207 180.366 49.0361 180.4 48.8652C180.913 46.9512 181.665 43.9775 182.725 39.9102C184.468 33.04 186.484 25.3154 188.774 16.668C188.843 16.4971 188.945 16.3604 189.082 16.2578C189.219 16.1553 189.39 16.0869 189.561 16.0869C189.731 16.0869 189.834 16.1553 189.937 16.2578C190.039 16.3604 190.039 16.4971 190.005 16.668C188.125 23.709 186.416 30.1689 184.912 36.0479C185.903 35.2617 187.202 34.6123 188.774 34.0654C190.381 33.5527 192.09 33.416 193.833 33.7236C194.004 33.7578 194.106 33.8262 194.175 33.9629C194.209 34.0996 194.209 34.2363 194.141 34.4072C194.038 34.5781 193.936 34.7148 193.765 34.8174C193.594 34.9199 193.457 34.9541 193.286 34.9199C191.816 34.6807 190.381 34.749 188.979 35.1934C187.544 35.6377 186.382 36.2188 185.493 36.9707C185.254 37.1758 184.98 37.4492 184.741 37.7568C184.468 38.0986 184.331 38.4746 184.297 38.8848C184.365 39.876 185.015 40.5938 186.211 41.0381C187.407 41.4824 188.706 41.7217 190.176 41.7217C191.099 41.7217 192.124 41.6191 193.32 41.4482C194.482 41.2773 195.781 40.9355 197.251 40.3545C198.721 39.7734 200.327 38.9189 202.139 37.791C202.31 37.6885 202.48 37.6543 202.651 37.6885C202.788 37.7227 202.891 37.791 202.959 37.9277C203.027 38.0645 203.027 38.2012 202.993 38.3721C202.925 38.543 202.788 38.6455 202.617 38.748C200.669 39.9785 198.926 40.9014 197.319 41.4824C195.713 42.0977 194.312 42.4736 193.081 42.6445C191.816 42.8154 190.757 42.918 189.834 42.918C188.296 42.918 186.792 42.6445 185.356 42.0635ZM203.027 38.4062C204.907 38.6455 206.206 38.5088 206.855 38.0303C206.958 37.9619 207.026 37.8936 207.061 37.8594C207.095 37.8252 207.095 37.8252 207.095 37.791C207.095 37.7568 207.026 37.6885 206.89 37.6201C206.753 37.5518 206.514 37.5176 206.172 37.5176C205.454 37.5176 204.839 37.5859 204.326 37.7568C203.813 37.9277 203.369 38.167 203.027 38.4062ZM205.215 42.9863H204.805C201.626 42.8838 200.259 41.8242 200.771 39.7393C200.874 39.2607 201.182 38.748 201.626 38.2354C202.07 37.7227 202.72 37.2441 203.54 36.8682C204.326 36.4922 205.317 36.3213 206.479 36.3213C207.539 36.3213 208.154 36.6289 208.325 37.2783C208.428 37.7227 208.257 38.167 207.812 38.6113C207.368 39.0557 206.685 39.3633 205.728 39.5684C204.736 39.8076 203.506 39.7734 202.036 39.5342L201.968 39.7393C201.797 40.5254 202.07 41.0723 202.788 41.3457C203.472 41.6533 204.258 41.79 205.146 41.79C209.18 41.9268 213.76 40.6279 218.853 37.9277C219.023 37.8252 219.16 37.8252 219.331 37.8594C219.468 37.8936 219.57 37.9961 219.604 38.1328C219.639 38.3037 219.639 38.4404 219.57 38.5771C219.468 38.748 219.365 38.8506 219.194 38.9531C214.238 41.6533 209.556 42.9863 205.215 42.9863Z" fill="#724B3B"/>
</svg>
